<mxfile host="Electron" agent="Mozilla/5.0 (Windows NT 10.0; Win64; x64) AppleWebKit/537.36 (KHTML, like Gecko) draw.io/27.0.9 Chrome/134.0.6998.205 Electron/35.4.0 Safari/537.36" version="27.0.9" pages="4">
  <diagram name="Admin-Registro" id="hRh2slbCF-3nwMbKpo4l">
    <mxGraphModel dx="1678" dy="989" grid="1" gridSize="10" guides="1" tooltips="1" connect="1" arrows="1" fold="1" page="1" pageScale="1" pageWidth="827" pageHeight="1169" math="0" shadow="0">
      <root>
        <mxCell id="0" />
        <mxCell id="1" parent="0" />
        <mxCell id="O4ofB0frYZxHXJ5vK1Hu-1" value="Administrador&lt;div&gt;&lt;br&gt;&lt;/div&gt;" style="shape=umlActor;verticalLabelPosition=bottom;verticalAlign=top;html=1;outlineConnect=0;" vertex="1" parent="1">
          <mxGeometry x="80" y="260" width="60" height="110" as="geometry" />
        </mxCell>
        <mxCell id="O4ofB0frYZxHXJ5vK1Hu-4" value="" style="rounded=0;whiteSpace=wrap;html=1;fillColor=none;" vertex="1" parent="1">
          <mxGeometry x="200" y="80" width="640" height="470" as="geometry" />
        </mxCell>
        <mxCell id="O4ofB0frYZxHXJ5vK1Hu-6" value="Crear Estudiantes" style="strokeWidth=2;html=1;shape=mxgraph.flowchart.start_1;whiteSpace=wrap;" vertex="1" parent="1">
          <mxGeometry x="340" y="180" width="110" height="60" as="geometry" />
        </mxCell>
        <mxCell id="O4ofB0frYZxHXJ5vK1Hu-7" value="&lt;b&gt;Registro&lt;/b&gt;&lt;div&gt;&lt;br&gt;&lt;/div&gt;" style="text;html=1;align=center;verticalAlign=middle;resizable=0;points=[];autosize=1;strokeColor=none;fillColor=none;fontSize=20;" vertex="1" parent="1">
          <mxGeometry x="210" y="85" width="100" height="60" as="geometry" />
        </mxCell>
        <mxCell id="F97q_GYrHFXpdCZgEwnb-6" style="edgeStyle=orthogonalEdgeStyle;rounded=0;orthogonalLoop=1;jettySize=auto;html=1;entryX=0;entryY=0.5;entryDx=0;entryDy=0;" edge="1" parent="1" source="O4ofB0frYZxHXJ5vK1Hu-8" target="F97q_GYrHFXpdCZgEwnb-5">
          <mxGeometry relative="1" as="geometry" />
        </mxCell>
        <mxCell id="O4ofB0frYZxHXJ5vK1Hu-8" value="Login" style="strokeWidth=2;html=1;shape=mxgraph.flowchart.start_1;whiteSpace=wrap;" vertex="1" parent="1">
          <mxGeometry x="580" y="180" width="120" height="60" as="geometry" />
        </mxCell>
        <mxCell id="O4ofB0frYZxHXJ5vK1Hu-9" style="edgeStyle=orthogonalEdgeStyle;rounded=0;orthogonalLoop=1;jettySize=auto;html=1;entryX=0;entryY=0.5;entryDx=0;entryDy=0;entryPerimeter=0;dashed=1;" edge="1" parent="1" source="O4ofB0frYZxHXJ5vK1Hu-6" target="O4ofB0frYZxHXJ5vK1Hu-8">
          <mxGeometry relative="1" as="geometry" />
        </mxCell>
        <mxCell id="O4ofB0frYZxHXJ5vK1Hu-10" value="&amp;lt;&amp;lt;Include&amp;gt;&amp;gt;" style="text;html=1;align=center;verticalAlign=middle;resizable=0;points=[];autosize=1;strokeColor=none;fillColor=none;" vertex="1" parent="1">
          <mxGeometry x="470" y="190" width="90" height="30" as="geometry" />
        </mxCell>
        <mxCell id="O4ofB0frYZxHXJ5vK1Hu-11" style="edgeStyle=orthogonalEdgeStyle;rounded=0;orthogonalLoop=1;jettySize=auto;html=1;entryX=0;entryY=0.5;entryDx=0;entryDy=0;entryPerimeter=0;" edge="1" parent="1" source="O4ofB0frYZxHXJ5vK1Hu-1" target="O4ofB0frYZxHXJ5vK1Hu-6">
          <mxGeometry relative="1" as="geometry" />
        </mxCell>
        <mxCell id="O4ofB0frYZxHXJ5vK1Hu-12" value="Crear Pcs Lab" style="strokeWidth=2;html=1;shape=mxgraph.flowchart.start_1;whiteSpace=wrap;" vertex="1" parent="1">
          <mxGeometry x="340" y="430" width="110" height="60" as="geometry" />
        </mxCell>
        <mxCell id="O4ofB0frYZxHXJ5vK1Hu-13" style="edgeStyle=orthogonalEdgeStyle;rounded=0;orthogonalLoop=1;jettySize=auto;html=1;entryX=0;entryY=0.5;entryDx=0;entryDy=0;entryPerimeter=0;" edge="1" parent="1" source="O4ofB0frYZxHXJ5vK1Hu-1" target="O4ofB0frYZxHXJ5vK1Hu-12">
          <mxGeometry relative="1" as="geometry" />
        </mxCell>
        <mxCell id="O4ofB0frYZxHXJ5vK1Hu-14" value="Seleccionar Cantidad" style="strokeWidth=2;html=1;shape=mxgraph.flowchart.start_1;whiteSpace=wrap;" vertex="1" parent="1">
          <mxGeometry x="560" y="430" width="130" height="60" as="geometry" />
        </mxCell>
        <mxCell id="O4ofB0frYZxHXJ5vK1Hu-15" style="edgeStyle=orthogonalEdgeStyle;rounded=0;orthogonalLoop=1;jettySize=auto;html=1;entryX=0;entryY=0.5;entryDx=0;entryDy=0;entryPerimeter=0;dashed=1;" edge="1" parent="1" target="O4ofB0frYZxHXJ5vK1Hu-14">
          <mxGeometry relative="1" as="geometry">
            <mxPoint x="450" y="460" as="sourcePoint" />
            <mxPoint x="580" y="460" as="targetPoint" />
          </mxGeometry>
        </mxCell>
        <mxCell id="O4ofB0frYZxHXJ5vK1Hu-16" value="&amp;lt;&amp;lt;Include&amp;gt;&amp;gt;" style="text;html=1;align=center;verticalAlign=middle;resizable=0;points=[];autosize=1;strokeColor=none;fillColor=none;" vertex="1" parent="1">
          <mxGeometry x="460" y="440" width="90" height="30" as="geometry" />
        </mxCell>
        <mxCell id="O4ofB0frYZxHXJ5vK1Hu-17" value="Importar Lista" style="strokeWidth=2;html=1;shape=mxgraph.flowchart.start_1;whiteSpace=wrap;" vertex="1" parent="1">
          <mxGeometry x="480" y="285" width="120" height="60" as="geometry" />
        </mxCell>
        <mxCell id="O4ofB0frYZxHXJ5vK1Hu-18" style="edgeStyle=orthogonalEdgeStyle;rounded=0;orthogonalLoop=1;jettySize=auto;html=1;entryX=0;entryY=0.5;entryDx=0;entryDy=0;entryPerimeter=0;dashed=1;" edge="1" parent="1" source="O4ofB0frYZxHXJ5vK1Hu-6" target="O4ofB0frYZxHXJ5vK1Hu-17">
          <mxGeometry relative="1" as="geometry">
            <Array as="points">
              <mxPoint x="400" y="315" />
            </Array>
          </mxGeometry>
        </mxCell>
        <mxCell id="O4ofB0frYZxHXJ5vK1Hu-19" value="&amp;lt;&amp;lt;Extend&amp;gt;&amp;gt;" style="text;html=1;align=center;verticalAlign=middle;resizable=0;points=[];autosize=1;strokeColor=none;fillColor=none;" vertex="1" parent="1">
          <mxGeometry x="390" y="290" width="90" height="30" as="geometry" />
        </mxCell>
        <mxCell id="O4ofB0frYZxHXJ5vK1Hu-20" value="Confirmar En BDD" style="strokeWidth=2;html=1;shape=mxgraph.flowchart.start_1;whiteSpace=wrap;" vertex="1" parent="1">
          <mxGeometry x="680" y="285" width="120" height="60" as="geometry" />
        </mxCell>
        <mxCell id="O4ofB0frYZxHXJ5vK1Hu-21" style="edgeStyle=orthogonalEdgeStyle;rounded=0;orthogonalLoop=1;jettySize=auto;html=1;entryX=0;entryY=0.5;entryDx=0;entryDy=0;entryPerimeter=0;" edge="1" parent="1" source="O4ofB0frYZxHXJ5vK1Hu-17" target="O4ofB0frYZxHXJ5vK1Hu-20">
          <mxGeometry relative="1" as="geometry" />
        </mxCell>
        <mxCell id="F97q_GYrHFXpdCZgEwnb-1" value="&lt;b&gt;&lt;font style=&quot;font-size: 23px;&quot;&gt;DB&lt;/font&gt;&lt;/b&gt;" style="strokeWidth=2;html=1;shape=mxgraph.flowchart.database;whiteSpace=wrap;" vertex="1" parent="1">
          <mxGeometry x="930" y="260" width="90" height="140" as="geometry" />
        </mxCell>
        <mxCell id="F97q_GYrHFXpdCZgEwnb-3" style="edgeStyle=orthogonalEdgeStyle;rounded=0;orthogonalLoop=1;jettySize=auto;html=1;entryX=0.003;entryY=0.398;entryDx=0;entryDy=0;entryPerimeter=0;" edge="1" parent="1" source="O4ofB0frYZxHXJ5vK1Hu-20" target="F97q_GYrHFXpdCZgEwnb-1">
          <mxGeometry relative="1" as="geometry" />
        </mxCell>
        <mxCell id="F97q_GYrHFXpdCZgEwnb-4" style="edgeStyle=orthogonalEdgeStyle;rounded=0;orthogonalLoop=1;jettySize=auto;html=1;entryX=0.395;entryY=0.995;entryDx=0;entryDy=0;entryPerimeter=0;" edge="1" parent="1" source="O4ofB0frYZxHXJ5vK1Hu-14" target="F97q_GYrHFXpdCZgEwnb-1">
          <mxGeometry relative="1" as="geometry" />
        </mxCell>
        <mxCell id="F97q_GYrHFXpdCZgEwnb-5" value="Archivo TOM" style="rounded=1;whiteSpace=wrap;html=1;absoluteArcSize=1;arcSize=14;strokeWidth=2;" vertex="1" parent="1">
          <mxGeometry x="925" y="140" width="100" height="100" as="geometry" />
        </mxCell>
      </root>
    </mxGraphModel>
  </diagram>
  <diagram id="Asv4JPBkJRdt-IEgV6-B" name="Admin-Visualizar">
    <mxGraphModel dx="1426" dy="841" grid="1" gridSize="10" guides="1" tooltips="1" connect="1" arrows="1" fold="1" page="1" pageScale="1" pageWidth="827" pageHeight="1169" math="0" shadow="0">
      <root>
        <mxCell id="0" />
        <mxCell id="1" parent="0" />
        <mxCell id="0qAp2uX-QycjOBD4z7a2-1" value="Administrador&lt;div&gt;&lt;br&gt;&lt;/div&gt;" style="shape=umlActor;verticalLabelPosition=bottom;verticalAlign=top;html=1;outlineConnect=0;" vertex="1" parent="1">
          <mxGeometry x="90" y="220" width="60" height="110" as="geometry" />
        </mxCell>
        <mxCell id="Fjf2aFWzAJABlvK8MIRo-1" value="&lt;div&gt;&lt;b&gt;Visualizar&lt;/b&gt;&lt;/div&gt;" style="text;html=1;align=center;verticalAlign=middle;resizable=0;points=[];autosize=1;strokeColor=none;fillColor=none;fontSize=20;" vertex="1" parent="1">
          <mxGeometry x="200" y="100" width="120" height="40" as="geometry" />
        </mxCell>
        <mxCell id="cZfT-byspSeiIFzExXT_-1" value="" style="rounded=0;whiteSpace=wrap;html=1;fillColor=none;" vertex="1" parent="1">
          <mxGeometry x="177.5" y="80" width="692.5" height="470" as="geometry" />
        </mxCell>
        <mxCell id="DDZNuPyHF9_xDlyrBxOl-11" value="" style="edgeStyle=orthogonalEdgeStyle;rounded=0;orthogonalLoop=1;jettySize=auto;html=1;dashed=1;" edge="1" parent="1" source="DDZNuPyHF9_xDlyrBxOl-1" target="DDZNuPyHF9_xDlyrBxOl-3">
          <mxGeometry relative="1" as="geometry" />
        </mxCell>
        <mxCell id="DDZNuPyHF9_xDlyrBxOl-1" value="Listado de PC" style="strokeWidth=2;html=1;shape=mxgraph.flowchart.start_1;whiteSpace=wrap;" vertex="1" parent="1">
          <mxGeometry x="270" y="180" width="110" height="60" as="geometry" />
        </mxCell>
        <mxCell id="HqB-uhu72Zvf6ughG2KH-2" style="edgeStyle=orthogonalEdgeStyle;rounded=0;orthogonalLoop=1;jettySize=auto;html=1;exitX=1;exitY=0.5;exitDx=0;exitDy=0;exitPerimeter=0;entryX=0;entryY=0.5;entryDx=0;entryDy=0;" edge="1" parent="1" source="DDZNuPyHF9_xDlyrBxOl-2" target="HqB-uhu72Zvf6ughG2KH-1">
          <mxGeometry relative="1" as="geometry" />
        </mxCell>
        <mxCell id="DDZNuPyHF9_xDlyrBxOl-2" value="Login" style="strokeWidth=2;html=1;shape=mxgraph.flowchart.start_1;whiteSpace=wrap;" vertex="1" parent="1">
          <mxGeometry x="717" y="255" width="110" height="60" as="geometry" />
        </mxCell>
        <mxCell id="DDZNuPyHF9_xDlyrBxOl-3" value="Filtrado por Estado" style="strokeWidth=2;html=1;shape=mxgraph.flowchart.start_1;whiteSpace=wrap;" vertex="1" parent="1">
          <mxGeometry x="265" y="310" width="120" height="60" as="geometry" />
        </mxCell>
        <mxCell id="DDZNuPyHF9_xDlyrBxOl-4" value="Filtrado por Fecha/hora" style="strokeWidth=2;html=1;shape=mxgraph.flowchart.start_1;whiteSpace=wrap;" vertex="1" parent="1">
          <mxGeometry x="520" y="310" width="120" height="60" as="geometry" />
        </mxCell>
        <mxCell id="DDZNuPyHF9_xDlyrBxOl-5" value="Chart O Grafica" style="strokeWidth=2;html=1;shape=mxgraph.flowchart.start_1;whiteSpace=wrap;" vertex="1" parent="1">
          <mxGeometry x="270" y="420" width="120" height="60" as="geometry" />
        </mxCell>
        <mxCell id="DDZNuPyHF9_xDlyrBxOl-6" style="edgeStyle=orthogonalEdgeStyle;rounded=0;orthogonalLoop=1;jettySize=auto;html=1;entryX=0;entryY=0.5;entryDx=0;entryDy=0;entryPerimeter=0;" edge="1" parent="1" source="0qAp2uX-QycjOBD4z7a2-1" target="DDZNuPyHF9_xDlyrBxOl-1">
          <mxGeometry relative="1" as="geometry" />
        </mxCell>
        <mxCell id="DDZNuPyHF9_xDlyrBxOl-7" style="edgeStyle=orthogonalEdgeStyle;rounded=0;orthogonalLoop=1;jettySize=auto;html=1;entryX=0;entryY=0.5;entryDx=0;entryDy=0;entryPerimeter=0;" edge="1" parent="1" source="0qAp2uX-QycjOBD4z7a2-1" target="DDZNuPyHF9_xDlyrBxOl-5">
          <mxGeometry relative="1" as="geometry" />
        </mxCell>
        <mxCell id="DDZNuPyHF9_xDlyrBxOl-8" style="edgeStyle=orthogonalEdgeStyle;rounded=0;orthogonalLoop=1;jettySize=auto;html=1;entryX=0.5;entryY=0;entryDx=0;entryDy=0;entryPerimeter=0;dashed=1;" edge="1" parent="1" source="DDZNuPyHF9_xDlyrBxOl-1" target="DDZNuPyHF9_xDlyrBxOl-2">
          <mxGeometry relative="1" as="geometry" />
        </mxCell>
        <mxCell id="DDZNuPyHF9_xDlyrBxOl-12" style="edgeStyle=orthogonalEdgeStyle;rounded=0;orthogonalLoop=1;jettySize=auto;html=1;exitX=0.855;exitY=0.855;exitDx=0;exitDy=0;exitPerimeter=0;entryX=0;entryY=0.5;entryDx=0;entryDy=0;entryPerimeter=0;dashed=1;" edge="1" parent="1" source="DDZNuPyHF9_xDlyrBxOl-1" target="DDZNuPyHF9_xDlyrBxOl-4">
          <mxGeometry relative="1" as="geometry" />
        </mxCell>
        <mxCell id="cgBWv3MKgyYimQvP2A2I-1" value="&amp;lt;&amp;lt;Extend&amp;gt;&amp;gt;" style="text;html=1;align=center;verticalAlign=middle;resizable=0;points=[];autosize=1;strokeColor=none;fillColor=none;" vertex="1" parent="1">
          <mxGeometry x="440" y="310" width="90" height="30" as="geometry" />
        </mxCell>
        <mxCell id="cgBWv3MKgyYimQvP2A2I-2" value="&amp;lt;&amp;lt;Extend&amp;gt;&amp;gt;" style="text;html=1;align=center;verticalAlign=middle;resizable=0;points=[];autosize=1;strokeColor=none;fillColor=none;" vertex="1" parent="1">
          <mxGeometry x="300" y="270" width="90" height="30" as="geometry" />
        </mxCell>
        <mxCell id="cgBWv3MKgyYimQvP2A2I-4" value="&amp;lt;&amp;lt;Include&amp;gt;&amp;gt;" style="text;html=1;align=center;verticalAlign=middle;resizable=0;points=[];autosize=1;strokeColor=none;fillColor=none;" vertex="1" parent="1">
          <mxGeometry x="500" y="180" width="90" height="30" as="geometry" />
        </mxCell>
        <mxCell id="cgBWv3MKgyYimQvP2A2I-5" style="edgeStyle=orthogonalEdgeStyle;rounded=0;orthogonalLoop=1;jettySize=auto;html=1;entryX=0.5;entryY=1;entryDx=0;entryDy=0;entryPerimeter=0;dashed=1;" edge="1" parent="1" source="DDZNuPyHF9_xDlyrBxOl-5" target="DDZNuPyHF9_xDlyrBxOl-2">
          <mxGeometry relative="1" as="geometry" />
        </mxCell>
        <mxCell id="cgBWv3MKgyYimQvP2A2I-6" value="&amp;lt;&amp;lt;Include&amp;gt;&amp;gt;" style="text;html=1;align=center;verticalAlign=middle;resizable=0;points=[];autosize=1;strokeColor=none;fillColor=none;" vertex="1" parent="1">
          <mxGeometry x="520" y="430" width="90" height="30" as="geometry" />
        </mxCell>
        <mxCell id="GjgLsYw5X0wkGVi2AcBJ-1" value="&lt;b&gt;&lt;font style=&quot;font-size: 23px;&quot;&gt;DB&lt;/font&gt;&lt;/b&gt;" style="strokeWidth=2;html=1;shape=mxgraph.flowchart.database;whiteSpace=wrap;" vertex="1" parent="1">
          <mxGeometry x="955" y="360" width="90" height="140" as="geometry" />
        </mxCell>
        <mxCell id="HqB-uhu72Zvf6ughG2KH-1" value="Archivo TOM" style="rounded=1;whiteSpace=wrap;html=1;absoluteArcSize=1;arcSize=14;strokeWidth=2;" vertex="1" parent="1">
          <mxGeometry x="950" y="235" width="100" height="100" as="geometry" />
        </mxCell>
        <mxCell id="SpMtOKQjPLQPnNn0y5su-2" style="edgeStyle=orthogonalEdgeStyle;rounded=0;orthogonalLoop=1;jettySize=auto;html=1;entryX=0;entryY=0.5;entryDx=0;entryDy=0;entryPerimeter=0;" edge="1" parent="1" source="DDZNuPyHF9_xDlyrBxOl-3" target="GjgLsYw5X0wkGVi2AcBJ-1">
          <mxGeometry relative="1" as="geometry">
            <Array as="points">
              <mxPoint x="325" y="410" />
              <mxPoint x="670" y="410" />
              <mxPoint x="670" y="430" />
            </Array>
          </mxGeometry>
        </mxCell>
        <mxCell id="SpMtOKQjPLQPnNn0y5su-3" style="edgeStyle=orthogonalEdgeStyle;rounded=0;orthogonalLoop=1;jettySize=auto;html=1;" edge="1" parent="1" source="DDZNuPyHF9_xDlyrBxOl-4">
          <mxGeometry relative="1" as="geometry">
            <mxPoint x="956" y="390" as="targetPoint" />
            <Array as="points">
              <mxPoint x="580" y="390" />
              <mxPoint x="956" y="390" />
            </Array>
          </mxGeometry>
        </mxCell>
      </root>
    </mxGraphModel>
  </diagram>
  <diagram id="SW0Llr0ANCNBfKEusVQq" name="Admin-Cambio de Estado">
    <mxGraphModel dx="1426" dy="841" grid="1" gridSize="10" guides="1" tooltips="1" connect="1" arrows="1" fold="1" page="1" pageScale="1" pageWidth="827" pageHeight="1169" math="0" shadow="0">
      <root>
        <mxCell id="0" />
        <mxCell id="1" parent="0" />
        <mxCell id="cWuhlw6wssSSidb1cSTb-1" value="Administrador&lt;div&gt;&lt;br&gt;&lt;/div&gt;" style="shape=umlActor;verticalLabelPosition=bottom;verticalAlign=top;html=1;outlineConnect=0;" vertex="1" parent="1">
          <mxGeometry x="160" y="220" width="60" height="110" as="geometry" />
        </mxCell>
        <mxCell id="tedsWsza2wCv90wXPi8x-1" value="" style="rounded=0;whiteSpace=wrap;html=1;fillColor=none;" vertex="1" parent="1">
          <mxGeometry x="260" y="60" width="615" height="560" as="geometry" />
        </mxCell>
        <mxCell id="B63UHe2enUX7GLr0qm6N-1" value="&lt;div&gt;&lt;b&gt;Cambio de Estado&lt;/b&gt;&lt;/div&gt;" style="text;html=1;align=center;verticalAlign=middle;resizable=0;points=[];autosize=1;strokeColor=none;fillColor=none;fontSize=20;" vertex="1" parent="1">
          <mxGeometry x="280" y="90" width="200" height="40" as="geometry" />
        </mxCell>
        <mxCell id="-8yo3jFNhywMl9Ab7tmS-1" value="Seleccionar PC" style="strokeWidth=2;html=1;shape=mxgraph.flowchart.start_1;whiteSpace=wrap;" vertex="1" parent="1">
          <mxGeometry x="325" y="180" width="110" height="60" as="geometry" />
        </mxCell>
        <mxCell id="zHUz_w53zDcoegoxDQ9Z-2" style="edgeStyle=orthogonalEdgeStyle;rounded=0;orthogonalLoop=1;jettySize=auto;html=1;entryX=0;entryY=0.5;entryDx=0;entryDy=0;" edge="1" parent="1" source="-8yo3jFNhywMl9Ab7tmS-2" target="zHUz_w53zDcoegoxDQ9Z-1">
          <mxGeometry relative="1" as="geometry" />
        </mxCell>
        <mxCell id="-8yo3jFNhywMl9Ab7tmS-2" value="Login" style="strokeWidth=2;html=1;shape=mxgraph.flowchart.start_1;whiteSpace=wrap;" vertex="1" parent="1">
          <mxGeometry x="630" y="180" width="110" height="60" as="geometry" />
        </mxCell>
        <mxCell id="-8yo3jFNhywMl9Ab7tmS-3" style="edgeStyle=orthogonalEdgeStyle;rounded=0;orthogonalLoop=1;jettySize=auto;html=1;entryX=0;entryY=0.5;entryDx=0;entryDy=0;entryPerimeter=0;dashed=1;" edge="1" parent="1" source="-8yo3jFNhywMl9Ab7tmS-1" target="-8yo3jFNhywMl9Ab7tmS-2">
          <mxGeometry relative="1" as="geometry" />
        </mxCell>
        <mxCell id="DWScaJqFKae-jo1ouCnX-1" value="&amp;lt;&amp;lt;Include&amp;gt;&amp;gt;" style="text;html=1;align=center;verticalAlign=middle;resizable=0;points=[];autosize=1;strokeColor=none;fillColor=none;" vertex="1" parent="1">
          <mxGeometry x="490" y="180" width="90" height="30" as="geometry" />
        </mxCell>
        <mxCell id="DWScaJqFKae-jo1ouCnX-2" value="Agregar Comentario" style="strokeWidth=2;html=1;shape=mxgraph.flowchart.start_1;whiteSpace=wrap;" vertex="1" parent="1">
          <mxGeometry x="325" y="340" width="110" height="60" as="geometry" />
        </mxCell>
        <mxCell id="DWScaJqFKae-jo1ouCnX-3" value="Asignar Estado" style="strokeWidth=2;html=1;shape=mxgraph.flowchart.start_1;whiteSpace=wrap;" vertex="1" parent="1">
          <mxGeometry x="510" y="340" width="120" height="60" as="geometry" />
        </mxCell>
        <mxCell id="DWScaJqFKae-jo1ouCnX-5" style="edgeStyle=orthogonalEdgeStyle;rounded=0;orthogonalLoop=1;jettySize=auto;html=1;entryX=0.5;entryY=0;entryDx=0;entryDy=0;entryPerimeter=0;dashed=1;" edge="1" parent="1" source="-8yo3jFNhywMl9Ab7tmS-1" target="DWScaJqFKae-jo1ouCnX-2">
          <mxGeometry relative="1" as="geometry" />
        </mxCell>
        <mxCell id="DWScaJqFKae-jo1ouCnX-6" style="edgeStyle=orthogonalEdgeStyle;rounded=0;orthogonalLoop=1;jettySize=auto;html=1;exitX=0.855;exitY=0.855;exitDx=0;exitDy=0;exitPerimeter=0;entryX=0.5;entryY=0;entryDx=0;entryDy=0;entryPerimeter=0;" edge="1" parent="1" source="-8yo3jFNhywMl9Ab7tmS-1" target="DWScaJqFKae-jo1ouCnX-3">
          <mxGeometry relative="1" as="geometry" />
        </mxCell>
        <mxCell id="DWScaJqFKae-jo1ouCnX-7" style="edgeStyle=orthogonalEdgeStyle;rounded=0;orthogonalLoop=1;jettySize=auto;html=1;entryX=0;entryY=0.5;entryDx=0;entryDy=0;entryPerimeter=0;" edge="1" parent="1" source="cWuhlw6wssSSidb1cSTb-1" target="-8yo3jFNhywMl9Ab7tmS-1">
          <mxGeometry relative="1" as="geometry" />
        </mxCell>
        <mxCell id="zHUz_w53zDcoegoxDQ9Z-1" value="Archivo TOM" style="rounded=1;whiteSpace=wrap;html=1;absoluteArcSize=1;arcSize=14;strokeWidth=2;" vertex="1" parent="1">
          <mxGeometry x="960" y="160" width="100" height="100" as="geometry" />
        </mxCell>
        <mxCell id="zHUz_w53zDcoegoxDQ9Z-3" value="&amp;lt;&amp;lt;Extend&amp;gt;&amp;gt;" style="text;html=1;align=center;verticalAlign=middle;resizable=0;points=[];autosize=1;strokeColor=none;fillColor=none;" vertex="1" parent="1">
          <mxGeometry x="360" y="280" width="90" height="30" as="geometry" />
        </mxCell>
        <mxCell id="k3SZzf0GFAbvaBpmHeh--1" value="&lt;b&gt;&lt;font style=&quot;font-size: 23px;&quot;&gt;DB&lt;/font&gt;&lt;/b&gt;" style="strokeWidth=2;html=1;shape=mxgraph.flowchart.database;whiteSpace=wrap;" vertex="1" parent="1">
          <mxGeometry x="960" y="310" width="90" height="140" as="geometry" />
        </mxCell>
        <mxCell id="k3SZzf0GFAbvaBpmHeh--2" style="edgeStyle=orthogonalEdgeStyle;rounded=0;orthogonalLoop=1;jettySize=auto;html=1;entryX=-0.011;entryY=0.45;entryDx=0;entryDy=0;entryPerimeter=0;" edge="1" parent="1" source="DWScaJqFKae-jo1ouCnX-3" target="k3SZzf0GFAbvaBpmHeh--1">
          <mxGeometry relative="1" as="geometry" />
        </mxCell>
        <mxCell id="k3SZzf0GFAbvaBpmHeh--3" style="edgeStyle=orthogonalEdgeStyle;rounded=0;orthogonalLoop=1;jettySize=auto;html=1;entryX=0.033;entryY=0.736;entryDx=0;entryDy=0;entryPerimeter=0;" edge="1" parent="1" source="DWScaJqFKae-jo1ouCnX-2" target="k3SZzf0GFAbvaBpmHeh--1">
          <mxGeometry relative="1" as="geometry">
            <Array as="points">
              <mxPoint x="380" y="420" />
              <mxPoint x="698" y="420" />
              <mxPoint x="698" y="413" />
            </Array>
          </mxGeometry>
        </mxCell>
      </root>
    </mxGraphModel>
  </diagram>
  <diagram id="o7H6Y2QmZHxlHqglPRZ8" name="Estudiante-Cambio de Estado">
    <mxGraphModel dx="1678" dy="989" grid="1" gridSize="10" guides="1" tooltips="1" connect="1" arrows="1" fold="1" page="1" pageScale="1" pageWidth="827" pageHeight="1169" math="0" shadow="0">
      <root>
        <mxCell id="0" />
        <mxCell id="1" parent="0" />
        <mxCell id="FHHzyU6ML2j5Coe6oDC0-1" value="&lt;div&gt;Estudiante&lt;/div&gt;" style="shape=umlActor;verticalLabelPosition=bottom;verticalAlign=top;html=1;outlineConnect=0;" vertex="1" parent="1">
          <mxGeometry x="20" y="270" width="60" height="110" as="geometry" />
        </mxCell>
        <mxCell id="FHHzyU6ML2j5Coe6oDC0-2" value="" style="rounded=0;whiteSpace=wrap;html=1;fillColor=none;" vertex="1" parent="1">
          <mxGeometry x="120" y="110" width="615" height="560" as="geometry" />
        </mxCell>
        <mxCell id="FHHzyU6ML2j5Coe6oDC0-3" value="&lt;div&gt;&lt;b&gt;Cambio de Estado&lt;/b&gt;&lt;/div&gt;" style="text;html=1;align=center;verticalAlign=middle;resizable=0;points=[];autosize=1;strokeColor=none;fillColor=none;fontSize=20;" vertex="1" parent="1">
          <mxGeometry x="140" y="140" width="200" height="40" as="geometry" />
        </mxCell>
        <mxCell id="FHHzyU6ML2j5Coe6oDC0-4" value="Seleccionar PC" style="strokeWidth=2;html=1;shape=mxgraph.flowchart.start_1;whiteSpace=wrap;" vertex="1" parent="1">
          <mxGeometry x="185" y="230" width="110" height="60" as="geometry" />
        </mxCell>
        <mxCell id="FHHzyU6ML2j5Coe6oDC0-5" style="edgeStyle=orthogonalEdgeStyle;rounded=0;orthogonalLoop=1;jettySize=auto;html=1;entryX=0;entryY=0.5;entryDx=0;entryDy=0;" edge="1" parent="1" source="FHHzyU6ML2j5Coe6oDC0-6" target="FHHzyU6ML2j5Coe6oDC0-14">
          <mxGeometry relative="1" as="geometry" />
        </mxCell>
        <mxCell id="FHHzyU6ML2j5Coe6oDC0-6" value="Login" style="strokeWidth=2;html=1;shape=mxgraph.flowchart.start_1;whiteSpace=wrap;" vertex="1" parent="1">
          <mxGeometry x="490" y="230" width="110" height="60" as="geometry" />
        </mxCell>
        <mxCell id="FHHzyU6ML2j5Coe6oDC0-7" style="edgeStyle=orthogonalEdgeStyle;rounded=0;orthogonalLoop=1;jettySize=auto;html=1;entryX=0;entryY=0.5;entryDx=0;entryDy=0;entryPerimeter=0;dashed=1;" edge="1" parent="1" source="FHHzyU6ML2j5Coe6oDC0-4" target="FHHzyU6ML2j5Coe6oDC0-6">
          <mxGeometry relative="1" as="geometry" />
        </mxCell>
        <mxCell id="FHHzyU6ML2j5Coe6oDC0-8" value="&amp;lt;&amp;lt;Include&amp;gt;&amp;gt;" style="text;html=1;align=center;verticalAlign=middle;resizable=0;points=[];autosize=1;strokeColor=none;fillColor=none;" vertex="1" parent="1">
          <mxGeometry x="350" y="230" width="90" height="30" as="geometry" />
        </mxCell>
        <mxCell id="FHHzyU6ML2j5Coe6oDC0-9" value="Agregar Comentario" style="strokeWidth=2;html=1;shape=mxgraph.flowchart.start_1;whiteSpace=wrap;" vertex="1" parent="1">
          <mxGeometry x="185" y="390" width="110" height="60" as="geometry" />
        </mxCell>
        <mxCell id="FHHzyU6ML2j5Coe6oDC0-10" value="Asignar Estado" style="strokeWidth=2;html=1;shape=mxgraph.flowchart.start_1;whiteSpace=wrap;" vertex="1" parent="1">
          <mxGeometry x="370" y="390" width="120" height="60" as="geometry" />
        </mxCell>
        <mxCell id="FHHzyU6ML2j5Coe6oDC0-11" style="edgeStyle=orthogonalEdgeStyle;rounded=0;orthogonalLoop=1;jettySize=auto;html=1;entryX=0.5;entryY=0;entryDx=0;entryDy=0;entryPerimeter=0;dashed=1;" edge="1" parent="1" source="FHHzyU6ML2j5Coe6oDC0-4" target="FHHzyU6ML2j5Coe6oDC0-9">
          <mxGeometry relative="1" as="geometry" />
        </mxCell>
        <mxCell id="FHHzyU6ML2j5Coe6oDC0-12" style="edgeStyle=orthogonalEdgeStyle;rounded=0;orthogonalLoop=1;jettySize=auto;html=1;exitX=0.855;exitY=0.855;exitDx=0;exitDy=0;exitPerimeter=0;entryX=0.5;entryY=0;entryDx=0;entryDy=0;entryPerimeter=0;" edge="1" parent="1" source="FHHzyU6ML2j5Coe6oDC0-4" target="FHHzyU6ML2j5Coe6oDC0-10">
          <mxGeometry relative="1" as="geometry" />
        </mxCell>
        <mxCell id="FHHzyU6ML2j5Coe6oDC0-13" style="edgeStyle=orthogonalEdgeStyle;rounded=0;orthogonalLoop=1;jettySize=auto;html=1;entryX=0;entryY=0.5;entryDx=0;entryDy=0;entryPerimeter=0;" edge="1" parent="1" source="FHHzyU6ML2j5Coe6oDC0-1" target="FHHzyU6ML2j5Coe6oDC0-4">
          <mxGeometry relative="1" as="geometry" />
        </mxCell>
        <mxCell id="FHHzyU6ML2j5Coe6oDC0-14" value="Archivo TOM" style="rounded=1;whiteSpace=wrap;html=1;absoluteArcSize=1;arcSize=14;strokeWidth=2;" vertex="1" parent="1">
          <mxGeometry x="820" y="210" width="100" height="100" as="geometry" />
        </mxCell>
        <mxCell id="FHHzyU6ML2j5Coe6oDC0-15" value="&amp;lt;&amp;lt;Extend&amp;gt;&amp;gt;" style="text;html=1;align=center;verticalAlign=middle;resizable=0;points=[];autosize=1;strokeColor=none;fillColor=none;" vertex="1" parent="1">
          <mxGeometry x="220" y="330" width="90" height="30" as="geometry" />
        </mxCell>
        <mxCell id="FHHzyU6ML2j5Coe6oDC0-16" value="&lt;b&gt;&lt;font style=&quot;font-size: 23px;&quot;&gt;DB&lt;/font&gt;&lt;/b&gt;" style="strokeWidth=2;html=1;shape=mxgraph.flowchart.database;whiteSpace=wrap;" vertex="1" parent="1">
          <mxGeometry x="820" y="360" width="90" height="140" as="geometry" />
        </mxCell>
        <mxCell id="FHHzyU6ML2j5Coe6oDC0-17" style="edgeStyle=orthogonalEdgeStyle;rounded=0;orthogonalLoop=1;jettySize=auto;html=1;entryX=-0.011;entryY=0.45;entryDx=0;entryDy=0;entryPerimeter=0;" edge="1" parent="1" source="FHHzyU6ML2j5Coe6oDC0-10" target="FHHzyU6ML2j5Coe6oDC0-16">
          <mxGeometry relative="1" as="geometry" />
        </mxCell>
        <mxCell id="FHHzyU6ML2j5Coe6oDC0-18" style="edgeStyle=orthogonalEdgeStyle;rounded=0;orthogonalLoop=1;jettySize=auto;html=1;entryX=0.033;entryY=0.736;entryDx=0;entryDy=0;entryPerimeter=0;" edge="1" parent="1" source="FHHzyU6ML2j5Coe6oDC0-9" target="FHHzyU6ML2j5Coe6oDC0-16">
          <mxGeometry relative="1" as="geometry">
            <Array as="points">
              <mxPoint x="240" y="470" />
              <mxPoint x="558" y="470" />
              <mxPoint x="558" y="463" />
            </Array>
          </mxGeometry>
        </mxCell>
      </root>
    </mxGraphModel>
  </diagram>
</mxfile>
